<?xml version="1.0" standalone="no"?>
<!DOCTYPE svg PUBLIC "-//W3C//DTD SVG 20010904//EN"
 "http://www.w3.org/TR/2001/REC-SVG-20010904/DTD/svg10.dtd">
<svg version="1.0" xmlns="http://www.w3.org/2000/svg"
 width="112.000000pt" height="112.000000pt" viewBox="0 0 112.000000 112.000000"
 preserveAspectRatio="xMidYMid meet">
<metadata>
Created by potrace 1.14, written by Peter Selinger 2001-2017
</metadata>
<g transform="translate(0.000000,112.000000) scale(0.100000,-0.100000)"
fill="#000000" stroke="none">
<path d="M931 1078 c-34 -16 -67 -38 -74 -49 -6 -10 -16 -19 -21 -19 -4 0 -31
-23 -59 -50 -38 -38 -57 -50 -76 -48 -14 2 -29 7 -32 11 -5 7 -113 13 -129 7
-3 -1 -19 -3 -36 -5 -17 -3 -44 -10 -60 -16 -16 -7 -34 -11 -41 -10 -6 1 -14
-3 -18 -9 -4 -7 -11 -8 -18 -1 -11 8 -70 41 -140 78 -59 31 -185 6 -188 -37
-5 -69 -5 -157 0 -165 3 -5 7 -18 8 -27 1 -9 20 -53 41 -97 38 -78 38 -81 20
-97 -10 -10 -16 -19 -14 -22 3 -2 -4 -13 -14 -25 -11 -11 -17 -24 -14 -29 3
-4 1 -8 -5 -8 -5 0 -8 -10 -6 -21 2 -12 0 -30 -6 -41 -10 -19 -24 -100 -21
-128 4 -51 14 -75 44 -105 18 -19 39 -41 47 -50 7 -9 19 -14 26 -11 8 3 15 0
18 -7 4 -12 37 -16 174 -21 50 -2 112 -9 137 -16 25 -7 57 -10 71 -7 15 2 45
0 68 -5 68 -16 139 -16 172 0 65 33 123 96 136 150 1 4 17 17 35 30 19 12 34
27 34 32 0 6 7 10 16 10 10 0 14 5 10 16 -3 8 -2 12 4 9 6 -3 11 1 11 9 1 9 3
21 4 26 1 6 3 15 4 21 0 5 5 7 11 4 5 -3 19 9 30 27 20 34 27 78 11 78 -4 0
-6 11 -3 25 2 13 1 33 -3 42 -5 10 -7 22 -6 27 3 14 -43 76 -57 76 -6 0 -11 4
-10 8 4 11 -57 72 -72 72 -6 0 -8 5 -5 10 3 6 0 10 -7 10 -8 0 -6 5 5 11 9 5
17 14 17 19 0 6 20 55 45 110 25 55 44 103 44 108 -1 4 0 9 1 12 14 36 -5 102
-33 113 -7 3 -42 -8 -76 -25z"/>
</g>
</svg>
